# xmcd CD database file
#
# Track frame offsets:
#	150
#	14122
#	26529
#	43507
#	58715
#	73621
#	90561
#	105218
#	123162
#	142028
#	160692
#	179311
#	199885
#	217844
#
# Disc length: 3160 seconds
#
# Revision: 0
# Processed by: cddbd v1.5.2PL0 Copyright (c) Steve Scherf et al.
# Submitted via: CDex 1.70beta2
#
DISCID=ba0c560e
DTITLE=Duffy Power - Tigers (Dusk Fire DUSKCD106)
DYEAR=2012
DGENRE=Blues
TTITLE0=Sweet Again
TTITLE1=Tigers
TTITLE2=Johnny Too Bad
TTITLE3=Whenever
TTITLE4=Let's Go Home
TTITLE5=To My Guitar
TTITLE6=Big Legged Rosie
TTITLE7=Spaces
TTITLE8=Camping With Billie
TTITLE9=Nine Lives Gone
TTITLE10=Now And Then
TTITLE11=Once Upon A Time
TTITLE12=Secret Love
TTITLE13='Til We Meet Again
EXTD=YEAR: 2012
EXTT0=
EXTT1=
EXTT2=
EXTT3=
EXTT4=
EXTT5=
EXTT6=
EXTT7=
EXTT8=
EXTT9=
EXTT10=
EXTT11=
EXTT12=
EXTT13=
PLAYORDER=
